<?xml version="1.0" encoding="UTF-8"?>
<svg version="1.1" xmlns="http://www.w3.org/2000/svg" width="891" height="236">
<path d="M0 0 C294.03 0 588.06 0 891 0 C891 77.88 891 155.76 891 236 C596.97 236 302.94 236 0 236 C0 158.12 0 80.24 0 0 Z " fill="#000E26" transform="translate(0,0)"/>
<path d="M0 0 C108.54697712 0 108.54697712 0 129.125 19.04296875 C140.6488451 31.07098208 144.3703493 46.07756733 144.21484375 62.37109375 C143.35004593 76.97831509 137.16005839 87.82224115 127 98 C126.44570313 98.56589844 125.89140625 99.13179688 125.3203125 99.71484375 C120.14573387 104.56762022 111.20691177 111 104 111 C109.66835017 119.56254308 115.39923831 128.08051953 121.1875 136.5625 C121.81857666 137.48732178 122.44965332 138.41214355 123.09985352 139.36499023 C126.41289839 144.21737925 129.73034819 149.06672666 133.05078125 153.9140625 C133.71247314 154.88142334 134.37416504 155.84878418 135.0559082 156.84545898 C136.30681686 158.67414512 137.55914446 160.50186187 138.81323242 162.32836914 C143.01145564 168.46838046 147.04055939 174.70355674 151 181 C145.16541848 181.27316172 139.33459697 181.47205699 133.49511719 181.60424805 C131.51203564 181.65936957 129.52939727 181.73429634 127.54785156 181.82983398 C111.26891449 182.59469862 111.26891449 182.59469862 106.24682617 179.06494141 C104.11019524 176.16672024 102.59520391 173.22748951 101 170 C99.35721685 167.41056295 97.6028079 164.90009812 95.86328125 162.375 C94.94954184 161.00539631 94.03894475 159.6336915 93.13134766 158.26000977 C92.67012512 157.56303986 92.20890259 156.86606995 91.73370361 156.14797974 C91.26470642 155.43914642 90.79570923 154.73031311 90.3125 154 C88.37019279 151.07048167 86.42594996 148.1422551 84.48046875 145.21484375 C84.00730225 144.50271225 83.53413574 143.79058075 83.04663086 143.05686951 C78.61530298 136.3994984 74.10134665 129.80070998 69.50512695 123.25585938 C66 118.21257989 66 118.21257989 66 116 C56.76 116 47.52 116 38 116 C38 137.45 38 158.9 38 181 C25.46 181 12.92 181 0 181 C0 121.27 0 61.54 0 0 Z " fill="#E71F2F" transform="translate(261,33)"/>
<path d="M0 0 C0.83192871 0.00563965 1.66385742 0.0112793 2.52099609 0.01708984 C15.60805294 0.27340025 25.07527286 3.72727401 34.5625 12.8125 C41.75 20.35101744 41.75 20.35101744 41.75 24.3125 C42.41 24.3125 43.07 24.3125 43.75 24.3125 C44.0284375 23.2915625 44.0284375 23.2915625 44.3125 22.25 C49.28885347 12.08092986 61.45269418 5.91223044 71.75 2.3125 C86.75393959 -1.84607223 102.49664461 -0.76185408 116.25390625 6.6640625 C118.28134072 8.0844569 119.99233121 9.57070181 121.75 11.3125 C122.43449219 11.97121094 123.11898437 12.62992188 123.82421875 13.30859375 C133.50785159 23.35021672 137.08901314 35.44983334 136.97705078 49.125 C136.97734283 50.07226456 136.97763489 51.01952911 136.97793579 51.99549866 C136.97655147 55.1012616 136.96103273 58.20677939 136.9453125 61.3125 C136.94157918 63.47582875 136.93873371 65.63915919 136.93673706 67.80249023 C136.92912577 73.47748539 136.90949884 79.15237707 136.8873291 84.82733154 C136.86681664 90.62575888 136.85772381 96.42420304 136.84765625 102.22265625 C136.82625053 113.58599012 136.79108885 124.94922024 136.75 136.3125 C125.2 136.3125 113.65 136.3125 101.75 136.3125 C101.7406543 133.75967285 101.73130859 131.2068457 101.72167969 128.57666016 C101.68781833 120.11482799 101.63221862 111.65323735 101.56609726 103.19159889 C101.52669279 98.06440632 101.49446987 92.93738369 101.47900391 87.81005859 C101.46379098 82.85612199 101.4292634 77.90265281 101.38169098 72.94892502 C101.36692488 71.0648748 101.35896174 69.18075783 101.35811615 67.29664993 C101.79060568 51.79536075 101.79060568 51.79536075 95.00042725 38.39761353 C89.22817663 32.97695778 83.66179574 31.8582018 75.890625 31.9921875 C69.16220662 32.67841922 62.44128863 35.36058422 57.75 40.3125 C52.16629243 48.30321936 49.46091403 55.52840743 49.43115234 65.35913086 C49.42110672 66.13068512 49.4110611 66.90223938 49.40071106 67.69717407 C49.37004905 70.22389036 49.35289165 72.75050153 49.3359375 75.27734375 C49.31721215 77.03854771 49.29763773 78.79974282 49.2772522 80.56092834 C49.22606933 85.1787493 49.18636977 89.7965993 49.14910889 94.41455078 C49.10191738 99.96474959 49.04037919 105.51480586 48.98126221 111.064888 C48.89321883 119.48070069 48.82333374 127.89648839 48.75 136.3125 C36.87 136.3125 24.99 136.3125 12.75 136.3125 C12.7406543 133.75967285 12.73130859 131.2068457 12.72167969 128.57666016 C12.68781833 120.11482799 12.63221862 111.65323735 12.56609726 103.19159889 C12.52669279 98.06440632 12.49446987 92.93738369 12.47900391 87.81005859 C12.46379098 82.85612199 12.4292634 77.90265281 12.38169098 72.94892502 C12.36692488 71.0648748 12.35896174 69.18075783 12.35811615 67.29664993 C12.39694665 53.33622232 12.39694665 53.33622232 7.75 40.3125 C7.42 39.3225 7.09 38.3325 6.75 37.3125 C5.05230766 36.21081016 5.05230766 36.21081016 2.75 35.3125 C1.821875 34.77625 0.89375 34.24 -0.0625 33.6875 C-6.80544602 30.86825102 -15.32870311 31.1576678 -22.234375 33.19140625 C-29.29657137 36.4335964 -33.73505979 40.8020121 -36.80134583 47.90734863 C-38.42081238 52.31575748 -38.6912153 56.26925863 -38.68237305 60.93164062 C-38.6925647 61.75210876 -38.70275635 62.5725769 -38.71325684 63.41790771 C-38.74319873 66.10159297 -38.75262373 68.78492021 -38.76171875 71.46875 C-38.77857942 73.34062875 -38.79673152 75.21249627 -38.81611633 77.08435059 C-38.86347178 81.98987316 -38.89337448 86.8953502 -38.91955566 91.80102539 C-38.94943434 96.81535837 -38.99593948 101.82953469 -39.04101562 106.84375 C-39.12688433 116.66660242 -39.19276416 126.48943897 -39.25 136.3125 C-51.13 136.3125 -63.01 136.3125 -75.25 136.3125 C-75.25 92.7525 -75.25 49.1925 -75.25 4.3125 C-63.7 4.3125 -52.15 4.3125 -40.25 4.3125 C-39.755 12.2325 -39.755 12.2325 -39.25 20.3125 C-37.661875 18.45625 -36.07375 16.6 -34.4375 14.6875 C-25.03087038 4.16339107 -13.97673934 -0.09952917 0 0 Z " fill="#E61F2F" transform="translate(570.25,77.6875)"/>
<path d="M0 0 C1.17941162 -0.01393799 2.35882324 -0.02787598 3.57397461 -0.04223633 C22.95474877 0.06196866 40.35668074 7.54636581 54.625 20.5625 C70.44832313 37.60907255 72.67334135 56.82338391 72.04980469 79.19970703 C71.19509054 94.7254224 62.55793299 110.01785406 51.48046875 120.6796875 C32.7999726 136.92597551 10.79128643 139.76589884 -13.125 138.375 C-30.26573524 136.4750881 -47.15120327 127.38861762 -58.5859375 114.62890625 C-72.4876216 97.24025488 -74.54381242 77.8800364 -73.125 56.375 C-71.22963238 40.13190326 -61.92028866 26.21827494 -50.125 15.375 C-46.61838618 12.6768417 -43.02798335 10.45176575 -39.125 8.375 C-38.25230469 7.90449219 -37.37960937 7.43398437 -36.48046875 6.94921875 C-24.57415677 1.0396437 -13.09250623 0.10009954 0 0 Z " fill="#E61F2F" transform="translate(799.125,78.625)"/>
<path d="M0 0 C7.75613584 5.68696538 12.50433244 12.34242318 15.390625 21.45703125 C15.57496094 22.03839844 15.75929688 22.61976563 15.94921875 23.21875 C18.15000857 34.37850722 16.83901964 47.05853953 10.953125 56.83203125 C10.1118642 58.04938511 9.25901213 59.25887686 8.390625 60.45703125 C7.83375 61.32328125 7.276875 62.18953125 6.703125 63.08203125 C0.47217592 69.48138436 -7.57756232 73.06207755 -16.44140625 73.7578125 C-29.77445316 73.79706583 -38.69679484 71.98126392 -48.51953125 62.640625 C-57.05830316 53.66675643 -58.95460671 43.17969027 -58.81640625 31.15625 C-58.15198335 19.28439175 -53.9671198 10.20551478 -45.234375 2.08203125 C-32.37025323 -8.14552502 -13.92642499 -8.23493693 0 0 Z " fill="#010E26" transform="translate(819.609375,113.54296875)"/>
<path d="M0 0 C11.55 0 23.1 0 35 0 C35 43.56 35 87.12 35 132 C23.45 132 11.9 132 0 132 C0 88.44 0 44.88 0 0 Z " fill="#E61F2F" transform="translate(435,82)"/>
<path d="M0 0 C6.89481566 2.954921 10.33370503 9.2158691 13.3125 15.75 C18.21349189 26.00703708 24.43003557 34.45661239 34.9375 39.375 C41.09444929 40.63152026 45.33197819 39.70212841 50.5625 36.4375 C59.30475091 30.0454775 63.5802929 22.41148036 68.10546875 12.8046875 C70.71622836 7.37893676 73.24010193 2.41112012 79 0 C83.26044487 -0.54223844 85.42096006 -0.30065535 89.25 1.6875 C92.56539345 4.47544449 94.70857982 6.50891785 95.22851562 10.95336914 C95.36877823 16.82296963 94.24140533 21.02825237 91.625 26.25 C91.26849365 26.98089844 90.9119873 27.71179688 90.54467773 28.46484375 C86.87288388 35.70887346 82.30173938 41.88003943 77 48 C76.31550781 48.83144531 75.63101563 49.66289063 74.92578125 50.51953125 C67.57256309 58.74112946 55.62254422 65.481633 44.49609375 66.23828125 C29.30784301 66.6563753 17.33175706 62.01725753 6 51.5625 C-2.85472056 42.16231411 -15.8785035 25.84844223 -16.6875 12.5 C-15.68082047 7.37508605 -13.72599874 4.39945843 -9.6875 1.125 C-6.20647239 -0.33217435 -3.74471902 -0.40121989 0 0 Z " fill="#E7202F" transform="translate(74,20)"/>
<path d="M0 0 C11.28115731 9.63563512 25.66132604 26.52565178 27.4375 41.75 C27.41253207 46.25255056 25.51128348 48.46750375 22.5078125 51.65234375 C20.02323283 53.87301729 18.07040507 54.25245548 14.8125 54.4375 C14.07644531 54.49808594 13.34039062 54.55867188 12.58203125 54.62109375 C7.82231853 53.47617042 4.38545545 50.12189051 1.74243164 46.07397461 C0.63526412 43.9927403 -0.38015457 41.88706652 -1.375 39.75 C-6.58700671 29.27071968 -13.02857125 20.56170221 -23.9375 15.6875 C-29.57887744 14.42106833 -33.57899469 15.49067461 -38.4375 18.4375 C-46.36307726 24.13694219 -51.00148528 31.8173703 -55.5625 40.25 C-61.91084801 51.85664346 -61.91084801 51.85664346 -67 54 C-71.23682777 54.88662051 -75.0436684 55.04127327 -78.9375 52.96875 C-82.83778223 49.89352747 -83.82190148 47.3993455 -84.4375 42.5625 C-84.17646577 28.25782403 -69.47045805 12.66445254 -60 3 C-59.46246094 2.43796875 -58.92492187 1.8759375 -58.37109375 1.296875 C-40.85391922 -15.38614836 -18.39436404 -13.8825389 0 0 Z " fill="#E7202F" transform="translate(142,154)"/>
<path d="M0 0 C7.21875 -0.061875 14.4375 -0.12375 21.875 -0.1875 C25.26241455 -0.22846802 25.26241455 -0.22846802 28.71826172 -0.27026367 C30.53873157 -0.27903797 32.35920737 -0.28667967 34.1796875 -0.29296875 C35.10015869 -0.30831665 36.02062988 -0.32366455 36.96899414 -0.33947754 C45.62205641 -0.34291584 54.28446906 1.20022328 61 7 C66.50214086 13.81154457 69.56555624 20.68141417 69.30859375 29.5390625 C68.35621249 37.13400164 65.5917549 43.50539926 59.86328125 48.6328125 C54.30496749 52.71123979 48.02657057 54.1323046 41.2097168 54.11352539 C40.27639526 54.11340454 39.34307373 54.11328369 38.38146973 54.11315918 C37.4138269 54.10804321 36.44618408 54.10292725 35.44921875 54.09765625 C34.54997681 54.09664917 33.65073486 54.09564209 32.72424316 54.09460449 C29.37864906 54.08938911 26.03307319 54.07542787 22.6875 54.0625 C15.200625 54.041875 7.71375 54.02125 0 54 C0 36.18 0 18.36 0 0 Z " fill="#010E26" transform="translate(298,64)"/>
<path d="M0 0 C17.42260899 8.82592692 33.76987469 21.23596034 40.109375 40.34375 C42.97952739 52.12648085 41.21431918 63.53788647 35.375 74 C28.69703882 84.44962141 19.98880533 91.91038451 10 99 C9.10796875 99.64710938 8.2159375 100.29421875 7.296875 100.9609375 C2.38742644 104.24934172 -1.6843486 105.96549354 -7.6640625 105.59765625 C-11.68162496 104.56975147 -14.44650489 102.20943881 -17 99 C-18.20643566 95.38069302 -18.32268559 92.80768995 -18 89 C-15.06951254 83.4687986 -11.24258274 80.72871606 -6.125 77.4375 C3.53509036 71.41385087 3.53509036 71.41385087 10.8125 62.875 C11.21082031 62.21242187 11.60914062 61.54984375 12.01953125 60.8671875 C14.21633564 56.68363173 14.59512839 52.62877637 14 48 C10.43500298 37.46000882 0.63464357 30.72099104 -8.3125 24.8125 C-12.34163289 22.09517782 -15.31056855 19.03414717 -18 15 C-18.46170489 10.01358718 -18.18538905 6.92864649 -15 3 C-10.18885782 -1.35293816 -6.04198061 -2.0426014 0 0 Z " fill="#E6202F" transform="translate(38,62)"/>
<path d="M0 0 C3.24168949 1.62084474 5.19736744 2.94198435 7.375 5.8125 C8.35285878 9.23500572 8.53535985 11.43093433 8 15 C4.3696528 21.34980728 -1.91644606 25.2208435 -7.78881836 29.27954102 C-14.38005048 33.86785883 -21.46608792 39.08152476 -24 47 C-24.90932895 53.8142119 -24.18210143 59.44921083 -20 65 C-14.12344866 71.39540232 -7.37538277 75.85339863 0.1171875 80.078125 C3.71463249 82.47642166 6.06747093 85.13494185 8 89 C8.40137875 93.17433895 8.26194303 95.49551713 6.3125 99.25 C3.06938794 103.1066738 0.81696481 104.71498591 -4.1875 105.5 C-12.81254595 104.36884643 -19.36511026 99.19050057 -26.1875 94.125 C-26.85257568 93.63161133 -27.51765137 93.13822266 -28.20288086 92.62988281 C-38.47886939 84.80128775 -48.87973305 74.28450445 -51 61 C-52.33032018 47.47338569 -50.70661865 36.85684396 -42.25 25.8125 C-40.85485744 24.18957906 -39.43819414 22.58489518 -38 21 C-37.34386719 20.25105469 -36.68773437 19.50210938 -36.01171875 18.73046875 C-26.99412891 9.03358777 -13.84311524 -1.79043446 0 0 Z " fill="#E7202F" transform="translate(200,62)"/>
<path d="M0 0 C4.9541182 3.097606 9.55935247 8.42776694 10.88671875 14.1796875 C11.40794547 19.70469071 10.71524405 24.40303881 7.88671875 29.1796875 C3.48889442 34.03442864 -1.08264059 37.66154834 -7.7265625 38.515625 C-14.84399874 38.61862697 -20.35452841 37.76584455 -25.64453125 32.71875 C-30.62193798 27.01788299 -31.63325172 22.66145341 -31.48828125 15.22265625 C-30.8147229 9.75701087 -28.4224909 6.20087756 -24.328125 2.6171875 C-17.07992316 -2.79972768 -8.34972319 -3.55667722 0 0 Z " fill="#E6202F" transform="translate(463.11328125,30.8203125)"/>
<path d="M0 0 C11.55 0 23.1 0 35 0 C35 43.56 35 87.12 35 132 C23.45 132 11.9 132 0 132 C0 88.44 0 44.88 0 0 Z M2 2 C2 44.57 2 87.14 2 131 C12.56 130.67 23.12 130.34 34 130 C34 87.76 34 45.52 34 2 C23.44 2 12.88 2 2 2 Z " fill="#F92531" transform="translate(435,82)"/>
<path d="M0 0 C0.33 0 0.66 0 1 0 C1 28.05 1 56.1 1 85 C11.89 85 22.78 85 34 85 C33.98839844 80.27945313 33.97679687 75.55890625 33.96484375 70.6953125 C33.95972842 67.68749861 33.95491402 64.67969015 33.95117188 61.671875 C33.94521648 56.90786614 33.93820532 52.14387667 33.92456055 47.37988281 C33.91361811 43.53490869 33.90769932 39.68995539 33.90512276 35.84496689 C33.90328883 34.38511706 33.89970805 32.92526825 33.89426994 31.4654274 C33.86613086 23.59152045 33.97207975 15.81936189 35 8 C35.33 8 35.66 8 36 8 C36 34.07 36 60.14 36 87 C24.12 87 12.24 87 0 87 C0 58.29 0 29.58 0 0 Z " fill="#F82430" transform="translate(583,127)"/>
<path d="M0 0 C9.9 0 19.8 0 30 0 C30 0.99 30 1.98 30 3 C16.14 2.505 16.14 2.505 2 2 C2 23.45 2 44.9 2 67 C1.34 66.67 0.68 66.34 0 66 C0 44.22 0 22.44 0 0 Z " fill="#C4202E" transform="translate(297,147)"/>
<path d="M0 0 C5.80238024 -0.07401964 11.60448722 -0.12853989 17.40722656 -0.16479492 C19.38221013 -0.17990462 21.35716004 -0.20039328 23.33203125 -0.22631836 C26.16675106 -0.26260619 29.00102826 -0.27970416 31.8359375 -0.29296875 C32.72243988 -0.30845261 33.60894226 -0.32393646 34.52230835 -0.33988953 C35.34300812 -0.34011612 36.16370789 -0.34034271 37.00927734 -0.34057617 C37.73319672 -0.34723801 38.45711609 -0.35389984 39.20297241 -0.36076355 C41 0 41 0 43 3 C29.14 3 15.28 3 1 3 C0.67 2.01 0.34 1.02 0 0 Z " fill="#F62430" transform="translate(369,211)"/>
<path d="M0 0 C0 3 0 3 -1.96875 5.04296875 C-2.8040625 5.75066406 -3.639375 6.45835937 -4.5 7.1875 C-5.3353125 7.90292969 -6.170625 8.61835938 -7.03125 9.35546875 C-7.6809375 9.89816406 -8.330625 10.44085938 -9 11 C-9.33 10.01 -9.66 9.02 -10 8 C-6.7 5.36 -3.4 2.72 0 0 Z " fill="#110B23" transform="translate(853,196)"/>
</svg>
