<?xml version="1.0" standalone="no"?>
<!DOCTYPE svg PUBLIC "-//W3C//DTD SVG 20010904//EN"
 "http://www.w3.org/TR/2001/REC-SVG-20010904/DTD/svg10.dtd">
<svg version="1.0" xmlns="http://www.w3.org/2000/svg"
 width="7680.000000pt" height="2034.000000pt" viewBox="0 0 7680.000000 2034.000000"
 preserveAspectRatio="xMidYMid meet">

<g transform="translate(0.000000,2034.000000) scale(0.100000,-0.100000)"
fill="#000000" stroke="none">
<path d="M5798 18610 c-9 -5 -19 -24 -23 -40 -9 -39 -17 -43 -88 -44 -63 -1
-67 -4 -87 -60 -10 -28 -12 -28 -67 -24 l-56 5 -153 -154 c-154 -154 -166
-172 -143 -214 18 -34 2 -57 -44 -66 l-42 -9 0 -74 0 -74 -35 -11 c-19 -5 -40
-13 -46 -17 -8 -6 -12 -94 -13 -298 -1 -159 -4 -296 -7 -304 -9 -23 15 -57 51
-72 43 -18 59 -46 51 -93 -20 -119 -19 -127 5 -150 12 -11 32 -21 43 -21 43 0
49 -12 33 -73 -18 -68 -9 -87 49 -96 35 -6 39 -9 39 -36 -1 -17 -4 -46 -8 -67
-9 -43 10 -68 52 -68 42 0 55 -21 42 -67 -18 -63 -14 -79 20 -93 16 -7 42 -28
56 -47 14 -18 43 -43 64 -55 41 -23 44 -31 30 -90 -11 -46 2 -67 49 -77 l35
-7 0 -70 c0 -38 3 -74 7 -80 4 -6 26 -14 49 -18 41 -7 42 -7 36 -44 -3 -20 -8
-50 -12 -67 -6 -26 -3 -32 27 -49 18 -10 51 -37 74 -60 22 -23 52 -49 66 -58
26 -17 26 -18 12 -65 -14 -47 -14 -48 8 -63 13 -8 48 -37 78 -65 30 -27 66
-57 80 -66 27 -18 27 -14 -7 -106 -3 -6 10 -19 27 -28 18 -9 69 -53 114 -98
45 -45 97 -94 116 -108 l34 -25 -18 -45 -18 -44 29 -20 c15 -11 93 -83 173
-160 80 -77 153 -144 163 -150 17 -9 17 -12 3 -47 -22 -51 -20 -65 9 -80 27
-15 576 -558 600 -595 16 -24 51 -29 90 -14 16 6 39 -12 130 -107 60 -63 117
-125 125 -139 14 -23 19 -24 68 -19 46 5 54 4 70 -16 9 -12 40 -46 67 -75 28
-29 58 -61 68 -73 12 -14 25 -19 42 -15 14 3 36 7 49 10 30 6 56 -17 56 -49 0
-36 21 -46 91 -44 l64 3 13 -42 c16 -49 33 -57 93 -44 50 11 79 0 79 -30 0
-11 5 -29 11 -40 9 -18 19 -20 77 -17 65 3 67 3 80 -27 24 -55 29 -60 58 -63
16 -2 52 2 79 8 42 10 57 10 88 -3 24 -10 37 -23 37 -35 0 -10 6 -26 13 -36
12 -17 29 -19 164 -17 163 2 168 1 175 -54 l3 -30 669 -3 c486 -1 673 1 682 9
8 6 14 20 14 30 0 43 23 49 181 49 l149 0 17 37 c25 52 64 70 120 55 87 -24
125 -12 143 43 13 39 29 46 105 42 48 -2 50 -1 61 33 16 49 39 61 93 49 51
-11 65 -3 81 46 14 41 30 48 97 39 l53 -6 19 44 c23 54 33 58 105 51 49 -5 56
-3 62 13 22 70 26 74 60 74 18 0 44 -4 58 -10 22 -8 28 -6 43 17 10 15 38 48
63 73 25 26 54 60 66 76 23 31 18 31 110 -3 6 -2 17 9 23 25 7 16 228 244 492
508 l481 479 -10 43 c-8 38 -7 44 12 57 11 8 82 75 156 148 74 74 148 142 163
153 28 19 28 20 15 68 -13 47 -12 49 12 64 14 9 43 35 65 57 22 23 55 52 73
65 34 23 35 27 16 92 -5 16 72 99 149 160 36 29 38 33 32 72 -4 22 -9 49 -11
59 -4 11 1 19 13 23 10 3 33 12 51 20 l34 15 -4 65 -3 66 45 17 c42 15 45 19
45 51 0 19 -3 51 -7 71 -6 36 -6 36 40 50 l47 14 -1 72 -2 73 38 10 c53 14 61
29 58 100 l-3 61 39 14 c59 21 61 29 40 135 -4 22 1 27 43 40 l48 15 0 67 0
67 45 23 c56 29 72 70 47 124 -31 64 -19 103 43 134 l39 20 3 353 c2 193 0
362 -4 375 -6 18 -15 22 -48 22 l-41 0 3 83 3 82 -47 5 c-26 3 -50 9 -53 12
-3 3 1 32 9 64 l16 59 -28 23 c-95 81 -226 212 -248 250 -15 26 -31 41 -39 38
-96 -36 -122 -30 -127 32 l-3 37 -82 3 -83 3 0 39 c0 35 -3 40 -22 40 -13 0
-143 1 -289 2 -146 0 -271 -2 -276 -5 -6 -4 -14 -23 -17 -42 -7 -38 -8 -38
-99 -35 -46 1 -48 0 -63 -37 -21 -49 -29 -53 -89 -52 l-50 2 -152 -153 c-90
-90 -153 -161 -153 -172 0 -11 5 -28 11 -39 18 -34 2 -57 -44 -66 l-42 -9 0
-74 0 -74 -38 -11 c-51 -14 -58 -29 -51 -101 l6 -61 -36 -7 c-47 -9 -70 -43
-62 -91 3 -19 9 -50 12 -67 8 -50 -10 -84 -57 -108 l-41 -22 6 -68 7 -67 -45
-12 c-36 -9 -45 -16 -50 -38 -4 -16 -2 -43 3 -61 14 -46 6 -58 -42 -74 l-42
-13 0 -74 0 -75 -35 -8 c-50 -13 -62 -33 -54 -94 6 -51 6 -51 -31 -74 -20 -12
-43 -33 -52 -47 -9 -14 -34 -36 -56 -50 l-40 -25 6 -59 c6 -54 5 -59 -16 -70
-12 -7 -53 -40 -90 -73 l-68 -61 5 -52 c4 -48 2 -55 -22 -73 -42 -33 -675
-665 -696 -695 -18 -27 -25 -28 -88 -9 -9 3 -25 -4 -35 -14 -75 -81 -121 -131
-135 -150 -16 -20 -24 -21 -73 -16 l-55 7 -16 -39 c-9 -22 -21 -42 -28 -46 -6
-4 -39 -8 -73 -8 -60 0 -63 -1 -69 -27 -12 -52 -16 -53 -178 -53 -164 0 -176
-4 -176 -52 0 -37 -13 -39 -190 -36 l-144 3 -10 33 c-14 51 -51 65 -130 51
-85 -16 -110 -8 -129 39 -21 53 -60 69 -112 48 -67 -28 -89 -22 -165 47 -40
36 -72 73 -76 89 -11 45 -28 53 -75 35 -48 -19 -71 -11 -88 30 -6 15 -27 38
-46 50 -19 13 -44 41 -55 63 -23 45 -23 45 -79 25 l-41 -14 -27 37 c-15 20
-31 39 -35 42 -4 3 -120 118 -259 255 l-251 249 10 44 c8 38 7 46 -11 63 -11
10 -26 19 -33 19 -7 0 -25 18 -41 40 -15 22 -38 43 -50 46 -12 3 -29 15 -39
25 -15 17 -16 24 -6 53 20 55 16 73 -21 87 -18 6 -43 27 -56 46 -12 19 -35 39
-52 45 -41 14 -52 39 -39 89 17 62 7 77 -52 85 l-50 7 7 36 c3 20 8 55 11 78
6 45 4 47 -66 55 -30 4 -37 34 -21 89 14 46 6 69 -28 75 -15 3 -36 20 -49 40
-12 19 -39 42 -60 52 l-37 18 3 68 c4 77 -2 86 -56 86 l-33 0 2 70 c2 74 -7
97 -44 102 -14 2 -29 17 -41 42 -17 34 -18 45 -8 83 15 56 15 106 0 121 -7 7
-26 12 -44 12 -51 0 -61 22 -39 82 l18 51 -28 21 c-40 30 -473 462 -515 515
l-35 44 -48 -17 c-60 -20 -121 -21 -140 -1 -9 8 -18 28 -22 45 l-7 30 -232 0
c-128 0 -253 2 -277 5 -24 3 -52 1 -61 -5z m7762 -3194 c0 -3 -4 -8 -10 -11
-5 -3 -10 -1 -10 4 0 6 5 11 10 11 6 0 10 -2 10 -4z"/>
<path d="M38542 17828 c-7 -7 -12 -22 -12 -34 0 -33 -19 -43 -90 -46 -64 -3
-65 -3 -82 -40 -25 -52 -66 -59 -181 -32 -28 7 -44 -8 -183 -164 -27 -31 -31
-32 -66 -22 l-38 11 -177 -175 c-98 -97 -185 -181 -194 -188 -22 -17 -30 -55
-18 -85 14 -39 2 -61 -36 -69 -51 -9 -58 -24 -51 -97 l7 -63 -40 -13 c-22 -6
-45 -20 -51 -31 -13 -25 -13 -76 2 -117 17 -47 2 -83 -47 -109 l-40 -20 -5
-445 c-6 -488 -6 -485 52 -491 l33 -3 0 -73 c0 -79 8 -92 58 -92 35 0 42 -18
29 -82 -5 -29 -8 -58 -5 -65 3 -7 26 -18 51 -26 51 -14 50 -12 37 -97 -6 -42
-5 -46 22 -62 36 -22 313 -294 336 -330 19 -31 49 -36 93 -16 24 11 28 10 43
-12 9 -14 39 -50 66 -81 28 -31 58 -66 68 -78 13 -17 23 -20 45 -14 15 4 43 8
62 8 34 0 35 -1 40 -45 l5 -45 163 0 c174 0 182 -2 182 -53 0 -14 8 -25 23
-30 12 -4 202 -5 421 -2 l400 5 8 33 c12 47 65 69 126 53 76 -20 132 -9 132
27 0 10 7 28 16 40 15 22 21 23 80 17 57 -7 64 -5 70 11 27 85 35 90 96 68 43
-15 43 -15 62 13 11 15 139 147 284 293 l264 264 -11 50 c-6 27 -9 52 -5 55 3
3 24 10 47 16 l42 10 -2 75 -2 75 47 15 47 15 1 235 c0 129 1 241 2 248 1 6
12 12 25 12 49 0 56 17 58 134 1 117 -2 126 -53 126 -19 0 -29 7 -34 22 -3 12
-5 108 -3 212 l4 191 -43 3 c-24 2 -45 9 -48 17 -3 7 -1 36 4 64 10 55 -4 90
-36 92 -9 0 -31 19 -47 42 -17 23 -40 44 -50 46 -40 7 -47 21 -39 88 5 47 3
63 -6 63 -18 0 -412 390 -430 425 -21 42 -28 45 -74 29 -54 -20 -86 -11 -86
22 0 14 -5 34 -11 45 -9 18 -17 19 -79 13 l-68 -6 -13 41 c-14 49 -57 74 -97
60 -28 -11 -133 -11 -148 -1 -6 4 -14 24 -18 45 l-7 37 -457 0 c-343 0 -461
-3 -470 -12z"/>
<path d="M22500 9695 l0 -7795 1633 2 1632 3 3 2609 c1 1851 -1 2613 -9 2622
-6 7 -25 14 -42 16 -30 3 -32 5 -32 43 0 40 12 53 68 69 15 5 18 15 15 63 l-3
58 -42 15 c-63 21 -59 48 21 127 l64 63 1131 0 c892 0 1133 -3 1141 -12 6 -7
20 -28 30 -45 11 -18 28 -33 38 -33 10 0 26 -6 36 -13 17 -13 18 -18 6 -67
-13 -52 -12 -54 10 -69 13 -9 44 -36 69 -61 25 -25 59 -52 74 -60 30 -15 30
-16 11 -102 -5 -22 -1 -29 22 -41 16 -9 52 -37 80 -64 28 -26 62 -55 74 -64
23 -15 23 -15 5 -61 -18 -48 -15 -68 11 -68 8 0 41 -26 73 -57 32 -32 69 -65
82 -74 23 -16 23 -16 6 -60 -17 -43 -17 -44 4 -59 12 -8 45 -36 73 -62 28 -25
64 -57 80 -71 27 -22 28 -26 18 -57 -17 -48 -15 -68 8 -75 12 -4 44 -30 73
-58 29 -29 63 -59 77 -68 24 -16 25 -18 12 -65 -13 -47 -12 -50 9 -64 12 -8
43 -35 69 -60 26 -25 60 -54 76 -66 29 -21 29 -21 16 -70 -12 -45 -12 -50 5
-59 10 -5 65 -55 123 -111 58 -55 115 -106 127 -112 20 -11 21 -13 7 -59 l-15
-48 28 -20 c15 -11 46 -40 68 -63 22 -24 53 -51 68 -59 28 -14 29 -16 22 -73
-7 -58 -6 -59 24 -74 16 -9 42 -32 57 -52 15 -19 45 -44 67 -55 34 -18 38 -24
32 -46 -18 -75 -18 -80 10 -99 15 -11 49 -39 75 -64 26 -25 57 -52 70 -61 23
-15 23 -17 10 -64 -13 -47 -13 -49 11 -64 13 -9 47 -39 74 -67 28 -28 61 -55
74 -59 20 -6 23 -11 17 -44 -3 -20 -9 -46 -12 -58 -5 -17 1 -25 24 -37 17 -9
47 -36 67 -61 21 -25 43 -45 50 -45 7 0 22 -8 34 -17 21 -17 21 -20 7 -61 -17
-49 -13 -68 17 -78 12 -4 44 -30 73 -58 28 -28 61 -58 73 -66 21 -14 21 -17 7
-63 l-14 -47 43 -30 c24 -17 53 -44 65 -60 12 -17 38 -37 57 -45 31 -13 35
-18 29 -42 -20 -90 -20 -89 18 -112 20 -12 48 -37 63 -55 16 -19 43 -41 62
-51 35 -18 35 -18 15 -106 -5 -21 0 -28 30 -44 19 -11 51 -38 71 -62 20 -24
41 -43 48 -43 7 0 20 -6 29 -14 16 -11 16 -17 2 -62 -14 -48 -14 -49 8 -64 12
-8 42 -36 67 -61 26 -25 61 -53 79 -63 37 -19 37 -19 17 -76 -8 -23 -15 -44
-15 -46 0 -2 14 -11 31 -20 17 -8 53 -37 79 -62 26 -26 57 -54 70 -63 23 -15
23 -17 10 -64 -13 -47 -13 -49 10 -64 13 -9 42 -34 64 -57 23 -22 56 -49 74
-59 36 -21 37 -30 20 -88 -11 -36 -10 -41 7 -51 10 -6 47 -36 81 -66 34 -30
72 -62 85 -71 22 -15 22 -16 6 -57 -23 -56 -22 -59 15 -78 37 -19 135 -114
163 -156 l17 -28 1794 0 c1195 0 1795 3 1799 10 3 6 3 18 0 28 -6 17 -106 102
-158 135 -29 18 -29 19 -22 81 l6 63 -36 17 c-19 10 -46 32 -58 51 -12 18 -35
39 -51 47 -44 20 -52 39 -36 88 13 41 13 43 -9 61 -13 11 -28 19 -35 19 -6 0
-21 16 -33 35 -13 19 -41 44 -64 55 -39 21 -41 23 -35 58 14 77 12 85 -17 101
-15 9 -67 54 -115 101 -49 47 -99 92 -112 101 -22 15 -23 18 -11 63 10 42 10
51 -5 67 -9 11 -23 19 -29 19 -7 0 -29 20 -49 45 -21 25 -43 45 -50 45 -7 0
-21 9 -31 20 -16 18 -17 26 -8 63 13 48 4 74 -30 82 -12 3 -32 21 -44 40 -13
19 -41 44 -63 55 -43 22 -48 37 -31 98 8 27 6 35 -12 52 -11 11 -25 20 -30 20
-6 0 -26 18 -45 41 -19 22 -46 45 -59 50 -32 12 -42 43 -29 92 10 36 9 41 -13
56 -14 9 -43 35 -65 57 -23 23 -56 49 -75 59 -35 18 -35 18 -15 106 5 21 0 29
-24 45 -16 10 -78 65 -137 122 l-107 102 7 46 c5 36 3 50 -11 65 -9 10 -22 19
-29 19 -6 0 -26 18 -43 39 -18 22 -44 46 -60 53 -25 13 -27 18 -27 76 0 60 -1
62 -36 86 -20 13 -43 36 -53 51 -9 14 -32 33 -51 42 -41 20 -47 35 -35 87 11
48 5 62 -29 77 -16 7 -39 28 -52 47 -13 19 -39 41 -57 49 -41 17 -48 35 -34
87 11 38 10 42 -14 61 -14 11 -46 41 -72 66 -26 25 -57 49 -68 53 -28 8 -35
37 -22 80 13 42 6 64 -26 76 -13 5 -36 25 -52 45 -15 20 -42 42 -60 50 -38 16
-50 47 -34 89 14 37 4 65 -25 72 -13 3 -36 21 -50 40 -15 19 -44 46 -66 60
-41 26 -50 55 -28 95 15 28 3 56 -30 67 -16 6 -41 26 -56 46 -15 20 -43 43
-61 52 -38 18 -50 44 -35 73 22 39 13 71 -21 86 -18 7 -41 27 -51 44 -10 17
-36 40 -57 51 -51 26 -55 35 -39 82 14 43 7 65 -27 83 -10 6 -58 48 -106 95
-47 47 -96 93 -107 103 -18 15 -20 24 -15 71 6 53 6 55 -23 69 -16 9 -42 32
-57 52 -15 19 -43 42 -63 50 l-35 15 7 65 7 65 -35 16 c-19 9 -42 30 -51 46
-10 16 -38 39 -62 51 -48 23 -53 38 -33 96 9 27 8 35 -6 51 -10 11 -24 20 -31
20 -7 0 -27 18 -44 40 -18 23 -47 47 -66 55 -37 15 -43 39 -24 89 12 32 5 50
-25 66 -30 16 -141 123 -155 150 -18 33 5 97 40 115 33 17 97 20 134 5 38 -14
74 4 91 43 22 54 39 62 96 50 46 -9 51 -8 65 11 8 11 14 28 14 37 0 30 26 41
92 37 62 -3 63 -3 73 28 19 58 32 66 97 59 l58 -7 20 46 c10 25 25 47 32 48 7
1 39 2 72 2 57 1 58 2 70 35 16 48 36 58 87 44 39 -10 43 -9 63 13 12 13 45
48 74 78 28 29 52 58 52 64 0 22 35 32 72 20 l35 -11 110 114 c61 63 121 126
134 141 23 26 26 27 68 15 43 -12 43 -12 72 25 37 46 753 759 775 771 13 7 15
20 10 61 l-5 51 134 125 135 125 -6 57 -6 58 47 20 48 20 -6 53 -5 52 57 53
c31 29 73 67 93 83 44 35 57 79 34 114 -18 28 -21 77 -6 106 6 10 29 28 52 40
l41 21 -7 62 -6 61 42 20 c55 26 76 66 58 109 -21 52 -24 94 -6 121 9 14 23
25 30 25 8 0 24 8 37 19 22 18 23 24 23 172 1 146 2 154 21 157 11 2 30 8 43
14 l22 11 0 334 0 333 29 0 c59 0 57 -14 56 481 l-1 454 -40 5 -39 5 -5 255
-5 255 -40 5 -40 5 -2 195 c-1 107 -2 200 -2 207 -1 6 -17 17 -36 23 -48 16
-69 49 -61 97 23 143 19 163 -35 163 -37 0 -42 11 -40 91 l2 68 -40 11 c-35 9
-42 16 -53 51 -9 32 -9 51 0 85 24 88 12 124 -39 124 -61 0 -73 25 -45 90 18
43 10 66 -24 78 -15 6 -40 27 -55 47 -16 20 -44 43 -63 51 l-35 14 6 60 c9 81
4 90 -49 90 -56 0 -64 16 -40 84 l18 50 -27 21 c-16 11 -87 78 -159 149 -72
70 -144 135 -160 143 -30 15 -29 12 -10 104 5 22 0 30 -28 47 -47 30 -414 402
-423 430 -8 26 -25 28 -66 6 -39 -20 -52 -14 -83 35 -14 22 -38 47 -54 57 -17
9 -37 32 -46 50 -17 37 -44 44 -92 22 -24 -11 -28 -10 -43 12 -9 13 -58 64
-108 114 -55 54 -97 105 -104 124 -11 32 -14 33 -43 26 -17 -4 -49 -8 -71 -8
-40 -1 -40 -1 -43 41 -4 51 -22 60 -93 43 -63 -15 -79 -9 -79 32 0 55 -9 60
-90 56 l-74 -3 -11 45 -11 45 -74 -3 c-81 -4 -90 1 -90 56 l0 32 -80 0 -79 0
-7 35 c-9 49 -52 72 -104 56 -21 -6 -58 -11 -83 -11 -44 0 -48 2 -66 38 -28
55 -64 77 -102 62 -33 -14 -119 -18 -137 -6 -7 4 -19 22 -26 41 -21 50 -44 58
-130 45 -93 -14 -122 -4 -131 44 -4 20 -14 37 -24 39 -9 2 -75 2 -147 -1 -149
-6 -171 1 -176 51 l-3 32 -210 5 -210 5 -5 40 -5 40 -342 3 -343 2 0 40 0 40
-3575 0 -3575 0 0 -7795z m6964 5129 c9 -3 16 -17 16 -29 0 -57 -9 -55 261
-55 l249 0 5 -27 c11 -52 19 -58 71 -57 27 1 67 4 89 8 52 9 87 -10 101 -54
l12 -35 70 0 c39 0 74 -3 78 -7 4 -4 10 -25 13 -45 7 -41 9 -42 110 -32 36 4
35 5 71 -71 6 -11 24 -15 69 -15 56 0 63 -2 80 -28 22 -34 316 -325 350 -348
24 -15 24 -17 11 -64 -13 -47 -13 -49 10 -64 12 -9 44 -36 69 -59 25 -24 58
-50 74 -58 29 -16 32 -27 17 -89 -11 -48 7 -75 50 -75 43 0 52 -19 39 -79 -14
-65 -9 -76 38 -91 21 -7 41 -18 45 -24 12 -17 9 -94 -4 -138 -10 -34 -9 -42 9
-65 11 -15 34 -31 51 -35 18 -5 33 -14 33 -21 1 -7 1 -78 -1 -158 l-2 -146 28
-10 c16 -6 37 -14 47 -17 16 -5 17 -32 17 -375 0 -285 -3 -372 -12 -378 -7 -4
-26 -13 -43 -18 l-30 -10 0 -154 c0 -91 -5 -156 -10 -158 -86 -33 -106 -69
-79 -140 26 -70 6 -118 -60 -142 -27 -11 -28 -13 -25 -77 4 -71 6 -69 -56 -96
-28 -13 -30 -17 -30 -73 l0 -60 -265 -256 c-259 -250 -326 -319 -364 -374 -17
-25 -22 -26 -67 -20 -53 7 -79 -4 -79 -34 -1 -37 -18 -46 -87 -46 l-68 0 -20
-40 c-25 -47 -62 -59 -140 -44 -83 16 -125 -4 -125 -60 0 -29 -23 -32 -180
-30 -78 2 -144 -1 -149 -7 -5 -5 -11 -22 -13 -39 l-3 -30 -2027 -3 -2028 -2 0
2323 c0 1278 3 2327 7 2330 8 9 3755 9 3777 1z m1806 -879 c0 -8 -2 -15 -4
-15 -2 0 -6 7 -10 15 -3 8 -1 15 4 15 6 0 10 -7 10 -15z"/>
<path d="M2506 15064 c-3 -9 -6 -26 -6 -39 0 -29 -19 -36 -87 -33 -54 2 -83
-12 -83 -41 0 -29 -22 -41 -76 -41 l-52 0 -164 -161 c-89 -89 -177 -172 -195
-186 -40 -31 -49 -68 -28 -121 23 -57 9 -99 -46 -132 l-42 -25 0 -276 c0 -152
3 -281 7 -287 4 -6 23 -14 42 -18 44 -8 49 -21 37 -85 l-10 -50 42 -29 c23
-16 49 -40 58 -54 9 -13 35 -35 57 -47 45 -25 47 -31 24 -85 -18 -42 -18 -41
45 -76 17 -9 38 -33 48 -52 13 -29 22 -36 46 -36 15 0 38 5 49 11 18 10 28 2
87 -62 36 -40 92 -99 124 -131 31 -31 57 -62 57 -69 0 -12 50 -9 82 5 11 5 23
0 35 -14 10 -12 41 -46 68 -75 28 -30 59 -65 70 -79 19 -24 22 -25 69 -14 43
11 49 10 58 -6 6 -10 37 -47 69 -83 32 -36 59 -69 59 -73 0 -16 33 -20 71 -9
l39 12 62 -69 c35 -38 86 -91 113 -120 28 -28 57 -61 65 -73 15 -22 16 -22 58
-8 43 15 44 15 65 -11 12 -15 80 -86 151 -158 71 -72 136 -143 145 -158 17
-28 28 -30 102 -11 24 6 29 2 50 -37 16 -27 39 -51 64 -64 43 -22 45 -30 30
-105 -6 -31 -4 -38 11 -43 11 -3 82 -68 159 -144 77 -75 151 -144 165 -153 23
-15 24 -18 14 -68 -13 -64 -3 -81 52 -90 l39 -7 -4 -44 c-9 -105 -10 -103 39
-120 l45 -16 -2 -69 c-1 -39 -3 -84 -4 -102 -4 -38 24 -73 57 -73 13 0 27 -8
31 -17 5 -10 7 -161 5 -336 l-4 -318 -39 -15 c-45 -19 -62 -59 -46 -109 27
-88 16 -123 -45 -151 l-41 -18 7 -73 6 -72 -38 -7 c-58 -10 -65 -20 -58 -85 6
-53 5 -57 -20 -74 -15 -10 -66 -56 -114 -104 -48 -47 -97 -94 -109 -104 -23
-19 -25 -46 -6 -89 5 -13 -1 -24 -21 -40 -43 -35 -257 -251 -275 -278 -14 -22
-18 -23 -57 -13 l-42 11 -152 -153 c-84 -84 -165 -168 -179 -186 -22 -28 -28
-30 -46 -20 -36 19 -69 13 -88 -15 -9 -15 -33 -40 -52 -57 -20 -17 -46 -49
-60 -70 -20 -31 -29 -38 -46 -33 -65 19 -75 18 -94 -5 -10 -12 -39 -43 -65
-69 -27 -26 -48 -52 -48 -59 0 -6 -10 -17 -23 -26 -18 -12 -31 -12 -61 -4
l-39 11 -58 -64 c-33 -35 -67 -75 -76 -91 -21 -34 -37 -39 -86 -28 -33 8 -41
6 -55 -11 -10 -12 -58 -61 -108 -109 -49 -49 -96 -100 -104 -113 -17 -32 -36
-39 -78 -26 -42 12 -57 5 -72 -31 -7 -16 -30 -39 -54 -52 -36 -20 -41 -27 -40
-57 0 -19 4 -43 8 -52 5 -11 1 -22 -11 -32 -10 -9 -52 -46 -93 -82 l-75 -66 0
-61 0 -62 -42 -13 c-24 -8 -43 -19 -43 -25 -1 -7 -2 -135 -3 -286 l-2 -274 41
-19 c23 -10 45 -25 48 -34 10 -25 6 -86 -8 -124 -16 -43 -7 -67 39 -99 19 -13
130 -120 246 -238 l211 -215 46 18 c79 30 130 13 156 -51 l15 -35 323 2 323 3
18 37 c24 49 75 67 141 48 62 -17 112 -1 121 41 4 16 16 35 27 43 17 12 26 12
62 0 40 -15 41 -15 61 12 11 14 40 47 65 73 25 26 54 60 66 76 19 27 23 29 48
17 43 -19 70 -15 88 16 9 15 46 58 82 95 l65 68 42 -12 c40 -12 43 -12 58 11
9 13 39 46 66 74 28 28 57 62 66 76 16 24 18 25 65 12 47 -13 50 -12 63 10 8
13 35 43 61 68 25 25 54 58 64 74 19 29 33 31 103 10 16 -4 25 0 35 19 7 14
84 98 171 186 l157 162 42 -13 c39 -12 42 -11 57 12 16 24 704 713 775 777
l36 31 -15 41 c-14 40 -13 43 8 59 12 9 65 59 117 109 52 51 105 100 118 109
21 15 23 21 17 65 l-7 48 62 58 c35 32 76 67 92 78 28 19 29 22 24 81 l-6 62
47 23 c47 24 48 24 45 69 -1 25 -4 54 -7 66 -4 17 3 23 43 36 l47 14 -2 72 -2
71 37 12 c53 17 57 23 57 96 l0 65 35 12 c21 7 41 24 53 44 19 32 19 36 3 68
-18 39 -21 86 -6 115 6 10 28 28 50 39 l39 20 -3 172 c-3 213 -2 224 33 232
56 12 53 -23 53 602 -1 319 -1 582 -2 586 0 4 -18 11 -40 14 l-40 6 -2 207 -3
206 -34 11 c-19 6 -40 20 -48 30 -14 19 -14 28 2 154 7 57 -1 69 -56 78 -43 8
-44 9 -40 43 2 18 5 52 5 74 1 37 -1 41 -34 51 -22 7 -42 24 -54 44 -19 32
-19 33 3 99 l21 66 -62 58 c-35 32 -80 69 -101 83 l-38 25 7 69 6 69 -51 7
c-46 6 -51 9 -51 32 0 13 5 43 12 65 11 37 11 41 -11 56 -13 9 -67 57 -120
107 -53 50 -106 96 -118 103 -26 13 -28 30 -11 77 l11 33 -103 98 c-225 214
-658 651 -685 691 -31 47 -39 49 -91 25 -37 -18 -37 -18 -52 7 -9 14 -56 66
-104 115 -49 50 -97 105 -108 123 -22 37 -25 37 -72 17 -40 -16 -52 -10 -81
38 -10 15 -33 37 -52 50 -19 12 -40 37 -47 54 -14 38 -35 48 -72 33 -48 -18
-64 -12 -85 28 -10 20 -33 45 -50 55 -17 10 -41 37 -52 59 -22 43 -30 44 -106
22 -17 -5 -26 2 -46 34 -14 21 -42 49 -61 60 -25 15 -38 31 -42 52 -10 48 -27
55 -79 36 -62 -24 -81 -16 -90 41 l-7 46 -69 -7 -69 -6 -17 35 c-9 19 -34 46
-55 60 -26 17 -41 36 -45 55 -9 45 -22 51 -81 34 -29 -9 -59 -13 -66 -11 -8 3
-17 26 -21 52 l-7 47 -76 -3 -76 -4 -9 39 c-11 47 -59 73 -102 56 -31 -12
-125 -13 -142 -2 -6 4 -14 24 -18 45 l-7 37 -248 0 c-217 0 -249 -2 -254 -16z
m-358 -1722 c2 -7 -3 -12 -12 -12 -9 0 -16 7 -16 16 0 17 22 14 28 -4z"/>
<path d="M16478 14978 c-10 -10 -18 -24 -18 -32 0 -38 -82 -58 -146 -36 -46
16 -85 0 -109 -46 -20 -39 -20 -39 -90 -44 l-69 -5 -10 -35 c-13 -47 -22 -51
-88 -44 -54 6 -57 5 -75 -22 -10 -16 -32 -41 -50 -57 -18 -16 -41 -43 -53 -62
-25 -41 -39 -47 -84 -33 -35 11 -36 11 -98 -53 -35 -35 -71 -77 -82 -93 -17
-27 -21 -28 -73 -24 -53 5 -56 4 -76 -27 -11 -18 -36 -43 -55 -56 -19 -13 -41
-38 -50 -56 -19 -39 -34 -45 -85 -34 -33 8 -41 6 -55 -11 -10 -12 -60 -64
-112 -117 -53 -53 -104 -109 -115 -124 -20 -28 -21 -28 -56 -13 l-36 15 -542
-542 -543 -542 5 -44 c4 -33 1 -47 -14 -60 -10 -9 -70 -63 -134 -121 l-116
-105 6 -57 c4 -55 4 -58 -24 -72 -16 -9 -40 -28 -53 -45 -14 -16 -44 -41 -66
-55 -45 -28 -51 -50 -32 -102 16 -42 4 -62 -43 -71 l-42 -9 0 -73 0 -74 -40
-11 c-34 -10 -42 -18 -52 -49 -11 -32 -10 -44 2 -74 28 -67 13 -112 -47 -139
l-39 -18 1 -60 c1 -34 1 -66 1 -73 -1 -6 -16 -15 -33 -18 -56 -12 -57 -16 -56
-158 1 -188 4 -174 -42 -188 -22 -7 -40 -15 -40 -18 0 -3 -1 -325 -1 -714 -1
-539 2 -711 11 -722 7 -8 25 -15 40 -15 16 0 30 -6 33 -12 3 -7 2 -78 -1 -158
-5 -158 -5 -158 53 -177 39 -13 53 -58 37 -119 -24 -89 -11 -123 53 -138 40
-10 43 -18 32 -80 -13 -70 -7 -83 42 -91 23 -4 43 -11 46 -16 4 -5 1 -35 -5
-66 -10 -54 -9 -59 11 -75 12 -10 34 -18 50 -18 38 0 44 -17 25 -79 -15 -51
-15 -51 11 -68 14 -10 49 -39 77 -64 28 -25 62 -52 75 -59 24 -12 24 -17 5
-102 -5 -21 -1 -29 19 -40 14 -7 68 -54 119 -103 51 -50 104 -98 118 -107 l25
-16 -16 -46 -17 -47 52 -38 c61 -46 666 -654 666 -669 0 -23 34 -30 73 -17 37
13 40 12 60 -13 11 -15 78 -84 148 -154 70 -69 135 -140 145 -157 20 -34 34
-37 85 -19 31 11 34 10 54 -17 11 -15 46 -54 78 -86 31 -32 57 -63 57 -69 0
-13 41 -13 75 0 23 9 29 6 48 -17 12 -15 63 -68 113 -118 50 -50 94 -101 98
-113 8 -25 40 -29 80 -10 24 10 30 7 91 -55 35 -37 71 -80 80 -97 12 -23 22
-30 46 -30 17 0 39 5 50 11 31 16 55 2 68 -41 15 -51 35 -62 90 -47 42 11 44
11 59 -13 9 -14 35 -43 57 -65 23 -22 50 -55 60 -73 21 -35 41 -39 93 -21 42
15 72 -2 72 -41 0 -46 25 -63 79 -55 25 3 62 9 81 12 39 5 88 -10 94 -29 3 -7
7 -25 10 -40 l6 -28 283 0 c299 0 307 1 307 47 0 37 36 53 94 42 26 -5 52 -6
57 -3 5 2 13 23 19 44 13 46 42 59 97 42 30 -9 36 -8 51 11 9 12 77 82 150
156 l134 134 -4 60 -3 61 35 9 c56 14 61 23 58 94 l-3 64 38 14 c21 7 41 16
44 19 10 9 7 570 -3 572 -5 1 -26 5 -47 9 l-39 6 7 76 c9 85 4 93 -57 93 -34
0 -38 3 -38 26 0 15 5 45 12 67 11 38 11 41 -12 56 -49 33 -330 316 -345 348
-18 36 -28 39 -65 18 -40 -23 -58 -18 -85 25 -14 22 -41 50 -60 62 -20 13 -37
34 -40 50 -11 46 -30 54 -82 35 -58 -22 -81 -11 -85 41 l-3 37 -69 0 c-68 0
-69 0 -91 35 -13 20 -38 47 -58 60 -23 16 -39 37 -46 62 -13 43 -18 44 -83 21
-55 -19 -78 -9 -78 38 0 24 -21 59 -36 59 -3 0 -25 -5 -49 -11 l-44 -11 -108
112 c-59 62 -114 125 -122 141 -17 33 -27 35 -79 13 -37 -15 -37 -15 -57 12
-18 25 -564 572 -623 624 -18 15 -21 26 -16 43 5 12 8 36 9 52 0 24 -6 33 -30
43 -17 8 -40 29 -53 48 -12 18 -38 40 -58 49 -35 14 -35 16 -34 67 3 85 2 86
-35 98 -51 17 -58 37 -50 145 8 100 8 101 -50 120 l-30 10 -5 400 c-3 220 -2
409 1 419 3 10 21 26 40 35 46 22 66 65 49 105 -7 17 -15 47 -17 66 -4 33 1
40 70 105 41 39 86 79 100 91 24 20 25 24 15 61 l-10 40 199 195 c109 108 211
206 226 219 27 23 27 26 17 74 -18 85 -20 80 35 80 28 0 60 -4 72 -8 15 -6 25
-3 35 9 7 9 85 91 173 183 113 117 166 165 180 164 11 -1 34 -5 50 -8 27 -6
32 -3 49 30 11 19 55 68 98 107 43 40 88 88 99 106 17 30 23 33 47 27 79 -19
79 -19 105 21 14 22 40 53 58 70 19 17 42 44 53 59 19 28 15 28 103 8 16 -4
25 2 36 24 9 16 65 79 127 141 l111 112 41 -12 c39 -11 42 -11 57 12 23 36
481 494 515 516 28 17 28 19 22 85 l-7 67 40 7 c23 4 44 11 47 17 9 14 9 552
0 566 -3 6 -20 13 -37 17 -21 5 -35 17 -47 41 -14 30 -14 41 -3 82 26 92 26
90 -15 125 -60 50 -239 229 -256 257 -14 23 -18 23 -60 14 -60 -14 -88 -3 -88
34 0 44 -21 56 -84 48 -68 -8 -86 -1 -86 33 0 14 -4 31 -8 38 -6 9 -102 13
-372 15 -337 3 -366 2 -382 -14z m-1281 -3620 c-3 -8 -6 -5 -6 6 -1 11 2 17 5
13 3 -3 4 -12 1 -19z"/>
<path d="M48451 13601 c-6 -11 -11 -31 -11 -45 l0 -26 -204 0 c-217 0 -221 -1
-228 -50 -5 -41 -48 -55 -118 -38 -71 17 -112 8 -130 -29 -33 -66 -61 -76
-155 -52 -58 15 -96 -3 -111 -51 l-12 -35 -70 -3 -70 -3 -16 -39 c-18 -44 -39
-54 -100 -45 -38 6 -46 4 -60 -16 -9 -13 -16 -32 -16 -41 0 -24 -35 -36 -87
-30 -42 4 -44 2 -110 -67 -38 -39 -77 -82 -88 -95 -19 -24 -22 -25 -64 -13
-41 11 -45 10 -60 -10 -28 -39 -646 -653 -680 -676 -31 -21 -32 -23 -26 -79
l6 -56 -58 -45 c-58 -45 -136 -122 -187 -186 -25 -31 -27 -41 -22 -82 8 -58 0
-65 -80 -74 -73 -9 -104 4 -104 41 0 18 12 33 45 56 l45 32 0 713 0 713 -1505
0 -1505 0 0 -5685 0 -5685 1544 0 c1457 0 1544 1 1551 17 3 10 6 1609 5 3553
-1 1944 -1 3545 -1 3558 1 15 7 22 22 22 11 0 29 5 40 11 19 10 20 20 19 147
-1 75 -1 145 -1 155 1 11 15 24 34 32 41 17 55 33 63 73 4 20 1 38 -10 53 -34
48 -13 107 50 143 40 23 44 32 31 92 -5 28 0 35 67 95 39 35 83 71 96 80 23
15 24 19 14 68 -11 52 -10 52 20 74 40 28 418 405 437 436 15 24 17 24 64 11
47 -13 49 -13 64 10 9 13 33 41 55 64 21 23 50 56 64 74 25 33 27 33 82 27
l57 -7 16 39 c23 58 80 78 152 52 47 -17 81 -4 109 40 28 44 73 66 113 57 101
-25 126 -20 151 32 l17 37 630 3 c371 1 633 -2 638 -7 5 -5 12 -24 16 -43 l7
-33 71 3 c78 3 83 0 93 -58 6 -34 7 -35 45 -31 109 10 109 10 121 -39 9 -39
15 -45 38 -48 16 -2 41 2 57 8 28 12 31 11 96 -61 37 -41 86 -92 108 -114 23
-22 49 -52 58 -67 20 -31 46 -35 109 -16 32 10 41 9 54 -4 13 -13 14 -24 3
-78 -12 -63 -12 -64 12 -79 13 -8 44 -36 69 -61 25 -25 57 -52 73 -60 30 -15
32 -22 16 -86 -10 -40 -10 -46 7 -59 11 -8 31 -15 45 -15 44 0 52 -20 36 -83
-17 -63 -8 -87 29 -87 14 0 34 -5 45 -11 18 -9 19 -17 13 -79 l-7 -69 48 -13
48 -13 -5 -152 c-5 -168 -1 -183 54 -183 15 0 29 -7 32 -16 4 -9 6 -1675 6
-3703 l-1 -3686 1543 0 1543 0 3 3397 2 3398 28 6 c60 15 64 25 57 167 -3 71
-3 138 0 148 4 11 22 26 40 33 20 9 41 28 51 47 16 32 16 34 -6 75 -22 39 -23
44 -9 80 11 30 24 43 57 58 l43 20 -3 70 -3 70 32 7 c57 12 65 25 58 95 l-7
62 45 17 c25 9 48 24 51 32 3 8 1 35 -6 61 -10 41 -10 47 7 56 11 6 42 32 70
58 27 25 63 57 79 71 28 23 29 26 18 67 -11 46 -8 67 13 72 18 4 314 294 345
337 22 32 24 33 80 26 51 -6 59 -5 64 12 3 10 39 54 80 96 l73 78 48 -13 c43
-12 48 -11 61 7 8 10 14 26 14 35 0 36 34 52 98 44 l59 -6 14 43 14 44 60 1
c33 1 65 2 72 3 6 1 17 17 23 37 7 22 21 39 36 44 14 6 83 8 154 5 108 -4 131
-2 144 11 9 8 16 23 16 33 0 41 5 41 521 41 387 0 500 -3 506 -12 4 -7 13 -26
18 -43 11 -33 0 -31 173 -24 48 2 82 -21 82 -56 0 -38 22 -47 81 -37 64 12 77
8 85 -27 13 -57 15 -61 41 -61 15 0 42 6 61 12 30 11 35 11 44 -7 18 -33 500
-519 530 -534 30 -16 34 -35 18 -90 -12 -42 8 -71 50 -71 40 0 50 -17 40 -70
-15 -74 -13 -78 37 -102 58 -28 69 -62 47 -147 -14 -51 -14 -57 4 -81 10 -14
31 -26 45 -28 15 -2 31 -11 36 -20 5 -10 6 -74 1 -147 -4 -71 -3 -140 1 -151
5 -14 21 -25 46 -31 l38 -9 2 -3654 3 -3655 1525 -3 c1009 -1 1533 1 1545 8
23 12 36 84 21 121 -7 19 -19 28 -44 33 -19 4 -38 14 -41 23 -4 9 -6 1593 -5
3520 1 3086 2 3505 16 3518 8 8 28 15 44 15 22 0 30 6 35 25 9 35 -2 55 -29
55 -13 0 -32 6 -43 14 -18 14 -19 31 -19 465 0 287 -4 453 -10 460 -5 5 -23
11 -40 13 l-30 3 -3 207 c-3 230 4 209 -67 220 -19 3 -20 11 -20 158 0 85 -4
160 -8 167 -4 6 -21 15 -38 18 -44 10 -65 61 -50 121 15 57 14 111 -1 121 -7
4 -29 13 -48 18 l-35 11 4 76 3 77 -52 7 c-52 7 -52 7 -46 38 25 118 20 132
-49 138 -39 3 -40 4 -36 38 3 19 5 55 5 80 l1 45 -45 5 c-42 5 -45 7 -44 35 0
17 4 49 9 72 7 41 7 42 -31 61 -22 11 -46 32 -55 47 -9 15 -33 37 -55 49 -44
24 -53 51 -34 97 11 25 10 32 -5 49 -10 11 -23 20 -29 20 -13 0 -732 721 -762
764 -19 28 -22 29 -53 18 -53 -19 -67 -15 -94 27 -15 22 -39 47 -54 56 -15 9
-36 35 -45 57 -17 40 -18 41 -55 33 -87 -17 -96 -14 -108 35 l-11 45 -74 0
-73 0 -11 39 c-15 51 -54 69 -110 49 -79 -27 -127 -14 -150 42 -20 47 -52 61
-110 46 -97 -24 -138 -11 -151 49 -8 35 3 33 -192 30 -158 -2 -144 -8 -155 65
-3 19 -12 20 -255 23 l-252 2 -7 38 c-4 20 -12 40 -18 44 -16 11 -978 9 -994
-1 -8 -5 -17 -24 -21 -42 l-7 -34 -284 -3 c-189 -1 -288 -6 -297 -13 -7 -6
-13 -24 -13 -40 0 -37 -8 -39 -190 -42 l-144 -2 -10 -34 c-15 -51 -60 -67
-133 -46 -70 20 -107 8 -128 -41 -21 -50 -51 -60 -134 -44 -80 15 -97 9 -126
-47 -20 -37 -22 -38 -75 -39 -77 0 -75 0 -92 -44 l-16 -39 -68 -3 -68 -3 -20
-40 c-21 -40 -21 -40 -90 -45 -67 -5 -70 -6 -79 -35 -17 -52 -25 -57 -87 -50
-62 7 -90 -7 -90 -45 0 -11 -11 -27 -25 -36 -21 -13 -33 -15 -66 -6 -39 10
-43 9 -63 -15 -12 -13 -59 -61 -104 -106 -46 -45 -91 -94 -100 -109 -20 -35
-37 -41 -77 -28 l-32 10 -327 -327 -328 -328 6 -43 c5 -38 3 -45 -22 -64 -15
-13 -87 -82 -160 -155 -74 -74 -141 -133 -151 -133 -31 0 -42 22 -31 61 6 18
10 49 10 67 0 28 -5 35 -32 47 -18 7 -41 27 -51 44 -10 18 -35 39 -55 49 l-37
18 2 62 c3 62 2 63 -31 83 -19 11 -44 35 -57 54 -13 19 -40 40 -61 49 -42 16
-47 34 -26 94 12 32 11 36 -12 50 -40 25 -760 744 -777 776 -15 29 -18 30 -95
11 -23 -6 -30 -2 -52 34 -15 23 -42 51 -61 63 -20 13 -37 34 -40 50 -10 42
-27 51 -72 38 -63 -19 -87 -11 -91 30 -2 19 -8 40 -13 45 -6 6 -42 10 -82 10
l-71 0 -9 37 c-7 30 -15 39 -43 48 -25 9 -43 9 -66 1 -35 -12 -108 -14 -124
-3 -5 4 -16 22 -23 40 -18 43 -60 66 -96 52 -38 -14 -140 -13 -153 3 -6 6 -12
26 -14 42 l-3 30 -255 5 -255 5 -3 35 c-2 19 -8 38 -14 42 -6 3 -350 7 -764 7
-739 2 -753 1 -763 -18z"/>
<path d="M67671 13508 c-5 -13 -10 -32 -12 -43 -4 -19 -14 -20 -254 -25 l-250
-5 -3 -30 c-2 -16 -8 -34 -13 -40 -6 -6 -77 -10 -167 -10 l-156 0 -10 -30 c-5
-16 -10 -36 -12 -42 -3 -10 -43 -13 -157 -13 -165 0 -169 -1 -181 -51 -7 -31
-37 -42 -93 -34 -46 7 -56 1 -76 -47 -19 -45 -58 -56 -139 -38 -68 15 -97 4
-123 -46 -20 -39 -21 -39 -86 -42 l-66 -3 -16 -39 c-16 -42 -16 -42 -101 -44
-51 -1 -63 -11 -80 -68 -4 -15 -17 -18 -76 -18 -68 0 -71 -1 -81 -27 -23 -57
-24 -58 -86 -58 -64 0 -93 -14 -93 -46 0 -37 -28 -50 -90 -43 l-57 6 -22 -35
c-12 -19 -33 -42 -46 -51 -14 -9 -37 -34 -51 -55 -31 -48 -42 -53 -87 -39
l-34 10 -109 -110 c-60 -61 -120 -125 -134 -143 -22 -28 -28 -31 -47 -21 -37
20 -69 14 -90 -15 -10 -16 -171 -179 -358 -363 l-340 -335 0 -50 0 -50 -160
-153 c-88 -84 -168 -160 -178 -168 -14 -12 -17 -22 -11 -47 16 -69 12 -80 -36
-98 -50 -18 -61 -44 -41 -100 9 -25 7 -33 -9 -49 -11 -11 -24 -20 -28 -20 -5
0 -34 -25 -66 -55 -31 -30 -62 -55 -68 -55 -7 0 -9 -20 -5 -64 7 -72 1 -82
-51 -92 -36 -7 -36 -6 -37 -94 l0 -64 -40 -12 -40 -11 0 -74 0 -73 -35 -11
c-19 -5 -40 -13 -46 -17 -20 -13 -24 -71 -10 -118 19 -66 6 -102 -44 -125 -44
-20 -43 -17 -44 -100 l-1 -60 -42 -13 -42 -14 0 -150 c0 -95 -4 -155 -11 -163
-6 -8 -24 -17 -40 -20 -16 -3 -31 -13 -34 -22 -4 -9 -4 -67 0 -128 4 -62 4
-128 0 -148 -6 -32 -12 -38 -46 -47 -22 -6 -40 -16 -41 -23 0 -7 0 -119 1
-249 l2 -236 -44 -9 -43 -9 -3 -928 c-1 -678 1 -932 9 -942 6 -8 22 -14 34
-14 45 0 48 -15 44 -262 l-4 -232 30 -15 c17 -8 37 -17 45 -21 12 -6 15 -34
15 -156 0 -82 3 -154 7 -160 4 -7 23 -15 42 -18 19 -4 36 -12 39 -19 2 -6 1
-73 -4 -147 -8 -155 -2 -177 53 -182 l33 -3 0 -75 0 -75 40 -13 c22 -7 43 -18
47 -25 11 -17 10 -63 -4 -129 -11 -55 -11 -59 12 -83 13 -14 33 -25 46 -25 35
0 46 -22 35 -71 -19 -80 -14 -87 62 -104 l29 -6 -7 -74 -7 -73 48 -14 c54 -15
55 -18 39 -105 -7 -40 -6 -42 26 -59 19 -9 52 -35 75 -58 22 -23 51 -48 64
-57 23 -15 24 -18 12 -65 -10 -46 -10 -50 11 -63 12 -8 42 -36 67 -62 25 -26
60 -54 78 -63 34 -17 35 -28 11 -93 -8 -22 10 -53 31 -53 5 0 70 -62 144 -138
75 -77 148 -145 162 -153 26 -14 27 -17 9 -90 -6 -22 -2 -29 27 -47 34 -21
231 -220 259 -262 16 -24 17 -24 58 -8 41 16 43 16 59 -5 9 -12 96 -103 194
-202 97 -99 188 -193 201 -209 l24 -29 44 17 c42 17 44 17 54 0 23 -40 159
-179 174 -178 9 1 30 5 48 9 29 7 33 4 57 -34 14 -22 38 -48 52 -58 14 -9 37
-34 51 -56 l24 -38 64 6 64 7 10 -40 c16 -58 30 -66 90 -53 28 6 57 8 65 5 8
-3 19 -26 25 -51 l12 -45 69 6 c62 6 70 5 79 -13 6 -11 11 -28 11 -39 0 -35
25 -46 76 -33 57 15 82 7 90 -27 15 -68 9 -65 90 -57 l73 7 6 -29 c16 -70 21
-75 78 -70 28 3 66 8 83 12 43 9 88 -16 111 -62 21 -44 49 -51 130 -33 65 14
123 -5 123 -42 0 -45 8 -47 175 -50 l160 -3 14 -44 14 -44 140 6 c154 6 187 0
187 -35 0 -49 -1 -49 296 -49 153 1 284 -2 290 -7 5 -4 15 -23 20 -42 l10 -35
969 -3 c639 -1 972 1 979 8 5 5 15 25 20 42 l11 33 239 3 c156 1 244 6 253 13
7 6 13 22 13 35 0 36 32 43 177 39 70 -2 134 0 142 4 8 5 19 24 25 43 l11 33
158 3 158 3 14 34 c26 60 73 78 140 54 18 -7 47 -9 69 -5 30 6 40 14 51 40 20
48 36 57 96 54 53 -3 53 -3 71 35 26 54 92 73 152 45 20 -8 35 -8 66 1 33 10
42 18 46 41 4 16 15 36 25 46 16 14 24 15 69 3 57 -15 63 -11 82 46 12 37 16
40 48 39 19 0 47 -4 62 -8 23 -7 30 -3 52 31 14 21 52 67 84 101 l58 64 41
-12 c54 -17 70 -9 83 39 13 48 39 59 97 40 36 -12 38 -11 57 17 11 16 59 68
106 115 47 47 94 98 105 113 20 27 21 27 69 14 46 -12 50 -12 60 7 6 11 248
259 539 550 l529 530 -12 40 c-11 36 -10 40 11 58 13 10 47 39 74 65 28 26 61
54 74 63 23 15 24 17 12 65 -12 47 -12 49 11 63 13 8 41 33 63 56 22 23 55 52
74 64 32 23 33 26 27 73 -4 26 -9 54 -12 62 -4 9 9 17 40 25 57 14 68 33 54
94 -13 61 -7 73 35 81 49 9 58 25 55 96 l-3 62 45 17 45 17 -3 70 -3 69 43 15
43 15 0 69 c0 69 0 69 32 80 18 6 40 19 50 28 20 21 22 80 3 124 -19 45 -6 78
43 111 23 16 48 42 56 57 12 25 11 33 -3 63 -31 65 -21 102 40 144 54 37 62
65 38 134 -22 67 -11 99 44 122 20 8 40 20 45 27 4 6 5 93 2 193 -4 155 -2
184 11 198 8 8 23 15 33 15 41 0 41 4 41 522 0 391 3 499 13 502 6 2 26 7 42
12 l30 9 3 288 2 287 -22 4 c-13 3 -32 7 -43 8 -19 3 -20 12 -22 332 -1 181
-4 335 -7 343 -3 7 -21 13 -40 13 -48 0 -50 13 -43 231 6 193 5 195 -48 201
l-30 3 -5 164 -5 164 -35 12 c-51 17 -66 54 -52 125 22 105 18 116 -48 135
l-35 11 0 74 0 74 -39 11 c-33 9 -42 18 -53 49 -11 33 -10 47 3 92 9 31 13 67
9 83 -5 25 -12 30 -53 38 -52 9 -48 -4 -39 120 2 33 -1 38 -28 46 -17 5 -40
23 -53 43 -12 18 -38 40 -57 48 l-35 15 0 75 0 75 -51 7 c-50 7 -51 7 -45 38
21 108 21 104 -16 125 -19 11 -44 34 -56 51 -12 16 -41 39 -63 51 -44 22 -44
19 -23 111 5 23 1 30 -32 51 -22 13 -71 58 -110 98 -39 41 -85 82 -103 91 -31
17 -44 59 -21 73 14 9 13 65 -1 65 -17 0 -580 558 -607 602 l-23 37 -43 -16
-43 -16 -154 157 c-85 87 -162 173 -172 192 l-18 34 -37 -16 c-20 -8 -39 -16
-42 -16 -21 -2 -33 7 -55 41 -13 22 -38 47 -55 57 -16 10 -35 32 -40 50 -16
49 -28 54 -84 36 -60 -19 -79 -10 -86 44 l-5 39 -68 -2 -67 -2 -24 38 c-14 21
-40 47 -59 58 -21 13 -37 32 -41 49 -13 50 -21 54 -77 36 -62 -20 -82 -10 -89
44 l-5 39 -72 0 c-77 0 -89 6 -95 44 -2 15 -15 32 -33 43 -28 16 -35 16 -80 3
-49 -15 -108 -12 -132 8 -7 5 -13 20 -13 32 0 37 -24 49 -89 42 -64 -7 -73 -2
-85 45 -9 37 -55 62 -91 48 -15 -6 -52 -10 -84 -10 l-58 0 -18 41 c-26 57 -43
63 -134 49 -93 -16 -117 -7 -127 45 -8 45 -23 49 -183 43 -69 -2 -133 -3 -142
-1 -10 3 -19 19 -23 43 l-6 40 -253 2 -252 3 -5 40 -5 40 -1153 3 -1152 2 -9
-22z m1595 -2475 c28 -4 32 -9 38 -44 l6 -40 199 2 c110 0 204 -2 210 -6 6 -3
11 -16 11 -29 0 -12 6 -30 13 -41 14 -18 24 -18 147 0 47 7 81 -12 102 -58 22
-45 51 -54 123 -37 76 18 117 3 138 -52 l17 -41 63 6 c67 6 87 -2 87 -34 0 -9
8 -27 18 -39 18 -22 21 -23 68 -11 47 12 50 11 64 -10 8 -13 36 -43 61 -68 25
-25 53 -58 62 -73 18 -30 52 -37 87 -18 16 8 62 -34 327 -301 169 -171 321
-318 337 -326 23 -12 27 -19 22 -41 -20 -88 -20 -87 18 -107 20 -11 50 -36 66
-56 15 -20 42 -42 59 -49 33 -13 37 -26 21 -80 -14 -50 -5 -68 43 -81 23 -7
45 -15 50 -19 4 -3 2 -32 -4 -64 -12 -69 -4 -83 53 -92 l39 -7 -3 -75 -3 -76
38 -11 c22 -6 42 -17 46 -25 4 -8 4 -76 0 -150 -7 -149 -5 -156 54 -176 l32
-11 0 -199 0 -198 40 -15 c22 -8 42 -16 43 -17 2 -1 3 -276 3 -611 -1 -334 -1
-620 -1 -635 0 -23 -5 -28 -35 -34 -19 -3 -38 -11 -43 -18 -4 -6 -7 -96 -7
-201 l0 -190 -40 -20 -40 -21 -5 -154 -5 -154 -40 -21 -40 -20 0 -70 0 -69
-38 -9 c-48 -12 -58 -30 -46 -92 5 -27 7 -55 5 -61 -2 -6 -25 -17 -51 -23
l-47 -12 4 -71 3 -72 -35 -11 c-56 -16 -63 -24 -57 -64 3 -20 8 -44 12 -53 4
-11 -1 -23 -16 -35 -13 -10 -66 -58 -119 -108 -53 -49 -106 -98 -119 -108 -23
-19 -25 -46 -7 -89 6 -12 -19 -42 -101 -120 -125 -119 -160 -156 -189 -194
-21 -27 -23 -28 -63 -16 l-41 13 -104 -108 c-57 -59 -116 -123 -131 -141 -26
-31 -30 -32 -76 -26 -53 7 -79 -5 -79 -36 0 -34 -35 -53 -84 -46 -55 9 -86 -6
-86 -38 0 -36 -25 -49 -93 -50 -61 -1 -62 -1 -80 -38 -25 -50 -65 -63 -146
-47 -74 16 -106 5 -116 -41 -11 -48 -73 -63 -155 -39 -50 15 -94 -4 -98 -43
-2 -15 -9 -31 -16 -37 -9 -8 -242 -10 -777 -9 l-764 3 -5 40 -5 40 -145 2
c-80 1 -155 2 -167 2 -18 1 -23 7 -23 29 0 45 -11 51 -90 54 l-74 3 -9 38
c-12 51 -43 63 -114 46 -28 -6 -65 -9 -82 -6 -37 8 -147 114 -167 163 -8 19
-16 34 -17 34 -2 0 -24 -7 -50 -16 -60 -20 -87 -8 -87 41 0 49 -25 60 -87 39
-47 -16 -47 -16 -62 7 -18 29 -769 780 -794 794 -20 11 -22 28 -11 94 8 51 -1
61 -59 61 -47 0 -54 15 -33 76 9 26 13 57 10 70 -5 19 -13 23 -52 26 l-47 3 4
45 c10 119 11 114 -39 120 l-45 5 0 79 0 80 -31 6 c-56 12 -56 10 -53 174 2
83 0 157 -4 164 -5 6 -21 12 -37 12 -16 0 -31 4 -35 9 -3 6 -6 98 -7 206 -1
127 -5 198 -12 204 -6 5 -24 11 -41 13 l-30 3 -3 643 c-2 509 0 643 10 646 7
2 27 7 43 12 l30 10 0 199 0 200 35 11 c25 8 40 21 54 48 18 37 18 38 -2 80
-29 57 -19 92 36 129 23 16 49 42 58 58 14 28 14 32 -5 63 -37 60 -21 112 45
150 39 22 39 22 36 77 -3 50 -1 57 21 72 14 9 46 36 70 59 25 24 57 52 72 63
26 20 26 20 11 63 -15 41 -15 43 7 60 12 9 42 38 67 63 25 26 60 54 79 64 27
14 32 21 27 41 -3 13 -9 34 -12 47 -5 20 30 58 242 267 249 247 267 265 302
309 18 23 22 24 66 14 38 -8 50 -8 62 4 7 8 14 19 14 24 0 5 24 33 53 62 28
29 60 63 70 76 13 17 24 21 40 17 77 -23 83 -21 102 27 20 54 32 60 102 51
l53 -6 20 47 20 47 53 -2 c82 -4 86 -3 95 33 13 50 39 57 187 52 109 -3 133
-1 147 12 10 9 18 24 18 33 0 35 21 40 170 40 150 0 170 5 170 41 0 10 8 25
17 34 15 15 59 17 487 15 259 -2 485 -5 502 -7z m-3126 -1217 c0 -3 -4 -8 -10
-11 -5 -3 -10 -1 -10 4 0 6 5 11 10 11 6 0 10 -2 10 -4z"/>
<path d="M37498 7603 c-2 -3118 -1 -5676 1 -5686 3 -16 81 -17 1505 -15 l1501
3 0 5680 0 5680 -1502 3 -1503 2 -2 -5667z"/>
<path d="M9317 8003 c-4 -3 -7 -19 -7 -35 0 -20 -6 -31 -22 -37 -12 -4 -99 -6
-193 -3 -189 5 -209 1 -218 -48 -9 -45 -44 -55 -131 -39 -83 15 -112 4 -130
-51 -11 -35 -11 -35 -72 -35 -63 0 -94 -14 -94 -44 0 -30 -23 -41 -87 -41
l-64 0 -19 -45 -19 -45 -69 0 -69 0 -16 -40 c-16 -42 -20 -44 -98 -40 -43 1
-48 -1 -68 -33 -12 -19 -33 -42 -46 -51 -14 -9 -37 -35 -52 -57 -27 -41 -28
-41 -76 -35 l-49 5 -67 -69 c-36 -38 -75 -81 -86 -96 -19 -24 -23 -25 -61 -15
l-40 11 -480 -478 c-263 -262 -490 -486 -503 -495 -23 -19 -24 -27 -6 -84 6
-18 0 -29 -26 -50 -18 -16 -75 -70 -127 -120 -51 -51 -98 -93 -104 -93 -7 0
-9 -18 -5 -56 5 -48 3 -57 -15 -72 -12 -9 -72 -64 -135 -122 l-113 -105 5 -52
c5 -48 3 -53 -21 -70 -15 -10 -48 -39 -75 -65 -26 -27 -52 -48 -58 -48 -22 0
-32 -49 -19 -91 14 -47 3 -62 -52 -77 l-35 -9 2 -61 c3 -60 2 -62 -34 -89 -73
-56 -143 -130 -145 -154 -1 -13 2 -38 6 -56 8 -35 2 -42 -54 -58 -29 -9 -35
-16 -38 -42 -2 -18 1 -48 6 -67 12 -41 5 -50 -48 -63 -39 -10 -51 -37 -39 -92
7 -31 4 -37 -23 -60 -17 -14 -47 -42 -67 -62 -20 -20 -49 -45 -64 -54 -27 -17
-28 -21 -25 -83 l3 -65 -42 -14 c-37 -13 -43 -19 -49 -50 -4 -20 -2 -50 5 -68
26 -72 11 -110 -56 -146 l-30 -16 -2 -321 -2 -320 23 -16 c12 -9 30 -16 40
-16 38 0 50 -73 23 -138 -22 -52 -13 -76 48 -121 54 -41 290 -279 318 -321 15
-23 19 -24 67 -14 64 13 82 4 82 -41 0 -23 6 -37 18 -42 9 -4 201 -6 427 -3
l409 5 7 31 c3 17 9 36 13 42 9 15 55 16 90 2 20 -7 28 -6 38 7 7 10 135 140
285 291 l272 273 -9 51 c-11 54 -4 68 30 68 9 0 26 7 38 16 20 14 22 23 20 80
l-3 65 39 14 c45 16 58 31 52 60 -3 11 -8 38 -11 60 l-7 40 49 15 48 15 -2 68
-2 68 44 19 c25 11 48 26 51 34 3 7 1 37 -4 66 l-10 52 50 21 50 21 -6 61 -6
60 34 19 c18 10 43 31 55 47 12 16 40 41 62 56 37 25 40 29 34 61 -3 18 -9 40
-11 47 -3 8 5 22 18 32 12 10 41 36 63 59 22 22 55 50 73 63 32 23 33 25 27
76 -6 45 -4 54 13 66 10 8 72 65 137 127 l117 113 -10 41 c-10 39 -9 42 20 67
35 30 414 409 441 441 12 14 25 19 35 15 9 -4 31 -9 48 -12 26 -4 34 0 50 25
10 17 68 80 127 142 99 102 111 111 135 104 57 -16 76 -11 87 22 18 56 32 65
99 62 l60 -3 19 38 c25 54 70 72 129 51 58 -20 104 -11 122 25 27 52 39 56
180 57 72 1 139 0 149 -3 10 -2 25 -22 34 -44 18 -46 43 -56 99 -40 50 14 100
14 125 0 11 -5 27 -28 35 -50 15 -36 19 -39 56 -39 23 0 57 5 77 11 51 15 108
-8 122 -51 15 -40 38 -52 80 -40 36 11 69 5 69 -11 0 -5 26 -36 58 -68 31 -33
64 -69 73 -82 15 -22 20 -23 58 -13 l41 11 393 -394 c215 -217 405 -402 420
-411 23 -14 27 -22 23 -44 -3 -16 -9 -40 -12 -55 -5 -24 0 -31 28 -47 18 -11
53 -40 78 -65 25 -25 54 -51 65 -57 19 -10 19 -14 7 -60 -13 -47 -12 -50 9
-64 13 -8 43 -36 69 -61 25 -25 55 -49 67 -53 36 -12 42 -27 30 -84 -13 -61
-7 -71 51 -87 40 -12 42 -19 27 -102 -7 -41 -7 -42 32 -62 22 -11 51 -35 66
-54 14 -19 40 -40 57 -47 l31 -13 -7 -63 -6 -64 45 -19 c40 -17 47 -25 53 -56
4 -21 2 -54 -5 -75 -24 -80 -9 -120 52 -136 37 -9 43 -26 30 -88 -13 -61 -6
-72 50 -84 38 -7 42 -11 41 -37 0 -17 -4 -47 -8 -67 -7 -34 -6 -38 21 -51 34
-18 401 -379 426 -419 19 -31 44 -35 96 -17 41 14 61 -1 61 -47 0 -27 5 -36
23 -42 12 -4 184 -5 381 -2 l359 5 10 30 c17 52 25 57 86 50 54 -6 57 -5 73
22 9 16 116 126 237 246 231 227 236 234 206 287 -17 30 -19 74 -4 101 5 11
28 27 50 35 28 12 39 22 39 38 0 11 1 136 1 278 1 141 -2 261 -5 267 -4 6 -18
11 -32 11 -13 0 -33 9 -45 21 -17 17 -20 29 -15 62 24 164 21 177 -35 177 -42
0 -50 19 -43 99 l7 71 -39 0 c-58 0 -68 11 -59 56 16 84 13 97 -27 116 -21 10
-44 31 -53 48 -9 17 -31 36 -50 45 -43 17 -49 32 -36 81 17 60 6 84 -38 84
-60 0 -64 8 -49 80 12 61 12 63 -11 79 -13 9 -42 34 -65 57 -23 22 -54 46 -69
53 -28 11 -29 13 -25 73 3 61 2 62 -32 86 -19 13 -43 36 -53 52 -10 16 -31 33
-47 38 -41 15 -53 43 -40 93 10 35 9 44 -6 60 -9 10 -23 19 -30 19 -7 0 -27
18 -44 40 -18 23 -47 47 -66 55 -37 15 -42 33 -25 93 8 28 7 36 -11 50 -11 9
-41 37 -66 63 -26 25 -59 50 -74 57 -30 13 -47 57 -29 75 21 21 13 63 -16 78
-15 8 -86 73 -158 144 -72 72 -142 137 -155 146 -24 16 -24 18 -12 65 13 47
12 50 -10 64 -50 32 -841 827 -860 863 -10 21 -25 37 -31 34 -91 -34 -88 -33
-106 -8 -9 13 -40 48 -68 77 -29 29 -53 59 -53 68 0 26 -30 35 -72 20 -48 -17
-62 -11 -82 31 -9 18 -32 42 -51 54 -19 11 -40 33 -46 48 -16 44 -32 51 -87
40 -68 -14 -82 -7 -82 43 l0 41 -75 -2 c-41 -2 -79 1 -84 6 -5 6 -11 26 -13
45 l-3 35 -80 0 -79 0 -9 43 c-9 46 -5 44 -102 46 l-59 1 -9 38 c-13 52 -42
63 -124 47 -90 -17 -119 -8 -136 43 l-14 42 -189 2 c-104 1 -196 2 -205 2 -11
1 -19 14 -23 41 l-6 40 -463 0 c-255 0 -467 -3 -470 -7z"/>
</g>
</svg>
