<?xml version="1.0" standalone="no"?>
<!DOCTYPE svg PUBLIC "-//W3C//DTD SVG 20010904//EN"
 "http://www.w3.org/TR/2001/REC-SVG-20010904/DTD/svg10.dtd">
<svg version="1.0" xmlns="http://www.w3.org/2000/svg"
 width="1024.000000pt" height="1024.000000pt" viewBox="0 0 1024.000000 1024.000000"
 preserveAspectRatio="xMidYMid meet">
<metadata>
Created by potrace 1.16, written by Peter Selinger 2001-2019
</metadata>
<g transform="translate(0.000000,1024.000000) scale(0.100000,-0.100000)"
fill="#000000" stroke="none">
<path d="M1323 6200 c-34 -21 -63 -66 -63 -100 0 -49 138 -273 233 -376 144
-158 344 -207 510 -126 116 57 243 205 333 388 58 117 47 176 -42 216 -88 38
-135 7 -203 -135 -59 -125 -96 -176 -156 -217 -66 -45 -111 -49 -179 -16 -75
37 -134 106 -200 236 -31 60 -68 118 -82 129 -35 28 -107 28 -151 1z"/>
<path d="M5165 6131 c-117 -29 -188 -144 -156 -253 15 -48 69 -110 117 -133
27 -13 55 -16 105 -13 58 3 74 8 106 34 98 79 117 186 50 285 -41 61 -146 99
-222 80z"/>
<path d="M3290 5191 l0 -911 185 0 185 0 0 330 0 330 129 0 c71 0 136 -3 145
-6 9 -3 106 -146 217 -317 111 -172 207 -318 214 -325 8 -9 62 -12 223 -10
l211 3 -220 330 c-121 182 -224 338 -230 347 -8 15 3 23 76 58 99 47 197 133
238 209 62 113 84 295 52 430 -35 147 -147 287 -285 355 -142 70 -207 77 -702
83 l-438 5 0 -911z m902 566 c107 -52 167 -158 155 -273 -6 -59 -24 -99 -69
-149 -69 -79 -135 -95 -400 -95 l-208 0 0 276 0 276 233 -4 c231 -3 232 -3
289 -31z"/>
<path d="M963 5795 c-62 -27 -94 -121 -58 -172 8 -11 52 -46 97 -76 98 -66
179 -142 203 -193 24 -51 16 -114 -23 -167 -32 -45 -151 -151 -218 -194 -50
-32 -74 -69 -74 -116 0 -66 71 -123 142 -114 97 13 328 215 387 340 59 124 60
256 3 377 -45 96 -221 254 -345 310 -50 23 -71 24 -114 5z"/>
<path d="M2501 5739 c-127 -84 -240 -199 -282 -285 -32 -66 -34 -75 -34 -179
0 -101 2 -115 28 -168 49 -98 170 -215 313 -301 120 -73 224 -30 224 92 0 49
-24 81 -87 117 -135 78 -243 195 -243 262 0 74 83 171 232 271 86 58 98 74 98
127 0 74 -51 125 -124 125 -26 0 -58 -15 -125 -61z"/>
<path d="M6273 5626 c-80 -20 -162 -66 -225 -127 -31 -31 -60 -54 -63 -51 -3
3 -5 31 -5 63 0 94 10 89 -176 89 l-164 0 0 -660 0 -660 178 0 177 0 0 418 c0
385 1 421 19 466 41 107 136 170 258 169 79 0 165 -36 198 -83 48 -68 50 -85
50 -541 l0 -429 180 0 179 0 3 433 c3 421 4 433 25 472 73 135 247 190 375
118 36 -21 62 -45 83 -78 l30 -48 3 -449 3 -448 174 0 175 0 0 468 c0 258 -5
494 -10 527 -21 127 -119 259 -233 314 -100 48 -246 62 -372 36 -102 -22 -171
-59 -253 -139 -59 -56 -75 -68 -82 -56 -6 8 -10 18 -10 21 0 17 -108 113 -152
135 -98 50 -254 67 -365 40z"/>
<path d="M8540 5624 c-264 -52 -445 -184 -546 -399 -91 -195 -82 -433 24 -625
21 -38 68 -98 116 -146 67 -68 97 -89 176 -127 128 -61 224 -82 375 -80 292 2
517 131 640 365 103 194 102 462 -2 661 -56 107 -173 221 -283 275 -47 23
-112 49 -145 58 -59 15 -303 28 -355 18z m295 -315 c94 -35 167 -127 195 -248
18 -77 8 -231 -19 -303 -24 -62 -91 -144 -146 -178 -18 -11 -66 -28 -106 -36
-170 -35 -344 40 -411 178 -67 138 -64 306 8 438 83 152 295 218 479 149z"/>
<path d="M5030 4940 l0 -660 180 0 180 0 0 660 0 660 -180 0 -180 0 0 -660z"/>
<path d="M1695 4962 c-123 -42 -243 -147 -339 -294 -98 -151 -114 -204 -76
-265 36 -60 128 -85 181 -50 16 11 46 58 78 121 58 118 117 190 188 228 77 42
106 44 168 13 72 -35 139 -112 200 -228 58 -112 78 -135 123 -143 75 -14 144
31 158 102 17 90 -180 383 -316 469 -100 64 -259 84 -365 47z"/>
</g>
</svg>
